<svg width="22" height="21" viewBox="0 0 22 21" fill="none" xmlns="http://www.w3.org/2000/svg">
<path d="M3 5.91648C8.42432 3.94776 14.368 3.94776 19.7923 5.91648" stroke="black" stroke-width="2" stroke-linecap="round" stroke-linejoin="round"/>
<path d="M7.67358 4.73162C7.67358 3.74193 8.06673 2.79284 8.76655 2.09302C9.46636 1.39321 10.4155 1 11.4052 1C12.3949 1 13.3441 1.39321 14.0439 2.09302C14.7436 2.79284 15.1368 3.74193 15.1368 4.73162" stroke="black" stroke-width="2" stroke-linecap="round" stroke-linejoin="round"/>
<path d="M11.3961 11.5232V16.1877" stroke="black" stroke-width="2" stroke-linecap="round" stroke-linejoin="round"/>
<path d="M17.9265 8.71509L17.3015 16.1783C17.2012 17.1868 16.7347 18.1235 15.9904 18.8113C15.2459 19.4989 14.2752 19.8898 13.262 19.91H9.53037C8.51713 19.8898 7.54642 19.4989 6.802 18.8113C6.05758 18.1235 5.59113 17.1868 5.4909 16.1783L4.86584 8.71509" stroke="black" stroke-width="2" stroke-linecap="round" stroke-linejoin="round"/>
</svg>
