<svg width="95" height="94" viewBox="0 0 95 94" fill="none" xmlns="http://www.w3.org/2000/svg">
<path d="M28.0001 20.8985C44.516 21.6252 60.2514 28.1326 72.4563 39.2832" stroke="#151515" stroke-width="5" stroke-linecap="round" stroke-linejoin="round"/>
<path d="M41.6704 22.8791C42.7539 20.259 44.8338 18.1768 47.4527 17.0903C50.0716 16.0038 53.0149 16.002 55.6351 17.0855C58.255 18.169 60.3375 20.2492 61.4239 22.8681C62.5104 25.4869 62.5123 28.43 61.4287 31.0502" stroke="#151515" stroke-width="5" stroke-linecap="round" stroke-linejoin="round"/>
<path d="M46.4995 56V69" stroke="#151515" stroke-width="5" stroke-linecap="round" stroke-linejoin="round"/>
<path d="M65.4995 48L63.7288 69.3333C63.4447 72.216 62.1233 74.8936 60.0145 76.8595C57.9055 78.8251 55.1556 79.9424 52.2852 80H41.7138C38.8434 79.9424 36.0934 78.8251 33.9845 76.8595C31.8756 74.8936 30.5542 72.216 30.2703 69.3333L28.4995 48" stroke="#151515" stroke-width="5" stroke-linecap="round" stroke-linejoin="round"/>
</svg>
