<svg width="19" height="20" viewBox="0 0 19 20" fill="none" xmlns="http://www.w3.org/2000/svg">
<path d="M13.042 1.65332C13.991 0.648691 15.5325 0.648574 16.4814 1.65332L17.3906 2.61621C18.3365 3.61774 18.3364 5.23964 17.3906 6.24121L6.39941 17.8789C6.06075 18.2374 5.62852 18.4823 5.15723 18.582L2.87891 19.0654C1.71346 19.3122 0.703871 18.2246 0.932617 17.0137L1.38867 14.6016C1.48229 14.106 1.71219 13.6495 2.05078 13.291L13.042 1.65332ZM3.29395 14.5908C3.19914 14.6913 3.13402 14.8201 3.10742 14.9609L2.67871 17.2256L4.81152 16.7744C4.94134 16.7469 5.06145 16.6795 5.15625 16.5791L12.9102 8.36816L11.04 6.3877L3.29395 14.5908ZM15.2373 2.95312C14.9735 2.67433 14.5488 2.67415 14.2852 2.95312L12.2754 5.08008L14.1455 7.06055L16.1475 4.94141C16.4141 4.65892 16.4142 4.19841 16.1475 3.91602L15.2373 2.95312Z" fill="#0F0F0F" stroke="black" stroke-width="0.2"/>
</svg>
