<svg width="21" height="21" viewBox="0 0 21 21" fill="none" xmlns="http://www.w3.org/2000/svg">
<path fill-rule="evenodd" clip-rule="evenodd" d="M9.04605 12.7553C9.14733 12.6541 9.22767 12.5339 9.28248 12.4016C9.33729 12.2692 9.36551 12.1274 9.36551 11.9842C9.36551 11.841 9.33729 11.6992 9.28248 11.5669C9.22767 11.4346 9.14733 11.3143 9.04605 11.2131C8.76153 10.9286 8.53583 10.5908 8.38185 10.2191C8.22786 9.84738 8.14861 9.44898 8.14861 9.04663C8.14861 8.64428 8.22786 8.24587 8.38185 7.87415C8.53583 7.50243 8.76153 7.16468 9.04605 6.88018L12.7186 3.20884C13.0031 2.92434 13.3409 2.69866 13.7126 2.54469C14.0844 2.39072 14.4828 2.31147 14.8852 2.31147C15.2875 2.31147 15.686 2.39072 16.0577 2.54469C16.4294 2.69866 16.7672 2.92434 17.0517 3.20884C17.3363 3.49335 17.5619 3.8311 17.7159 4.20282C17.8699 4.57454 17.9492 4.97295 17.9492 5.37529C17.9492 5.77764 17.8699 6.17605 17.7159 6.54777C17.5619 6.91949 17.3363 7.25724 17.0517 7.54174L15.9165 8.67586C15.8153 8.77713 15.7349 8.89735 15.6801 9.02966C15.6253 9.16197 15.5971 9.30378 15.5971 9.44699C15.5971 9.59021 15.6253 9.73202 15.6801 9.86433C15.7349 9.99664 15.8153 10.1169 15.9165 10.2181C16.1211 10.4226 16.3985 10.5375 16.6877 10.5375C16.8309 10.5375 16.9727 10.5093 17.1051 10.4545C17.2374 10.3997 17.3576 10.3194 17.4589 10.2181L18.5941 9.08402C19.5778 8.1004 20.1304 6.76633 20.1304 5.37529C20.1304 3.98425 19.5778 2.65019 18.5941 1.66657C17.6104 0.68296 16.2763 0.130371 14.8852 0.130371C13.4941 0.130371 12.1599 0.68296 11.1763 1.66657L7.5037 5.33791C7.01662 5.82493 6.63024 6.40312 6.36664 7.03947C6.10303 7.67581 5.96735 8.35785 5.96735 9.04663C5.96735 9.73541 6.10303 10.4174 6.36664 11.0538C6.63024 11.6901 7.01662 12.2683 7.5037 12.7553C7.92953 13.1812 8.62022 13.1812 9.04605 12.7553ZM11.1752 7.54174C11.0739 7.64301 10.9936 7.76323 10.9388 7.89554C10.884 8.02785 10.8558 8.16966 10.8558 8.31288C10.8558 8.45609 10.884 8.59791 10.9388 8.73022C10.9936 8.86253 11.0739 8.98275 11.1752 9.08402C11.4597 9.36851 11.6854 9.70627 11.8394 10.078C11.9934 10.4497 12.0727 10.8481 12.0727 11.2505C12.0727 11.6528 11.9934 12.0512 11.8394 12.4229C11.6854 12.7947 11.4597 13.1324 11.1752 13.4169L7.54005 17.0519C7.25704 17.3431 6.91897 17.5751 6.54549 17.7345C6.17201 17.8938 5.77058 17.9774 5.36453 17.9802C4.95848 17.9831 4.5559 17.9052 4.18021 17.7512C3.80452 17.5971 3.46321 17.3698 3.17612 17.0827C2.88902 16.7956 2.66187 16.4542 2.50787 16.0785C2.35387 15.7028 2.27609 15.3002 2.27905 14.8942C2.28202 14.4882 2.36566 14.0868 2.52513 13.7133C2.6846 13.3399 2.91671 13.0019 3.20797 12.719L4.27255 11.6545C4.47708 11.4499 4.59198 11.1726 4.59198 10.8833C4.59198 10.5941 4.47708 10.3167 4.27255 10.1122C4.06802 9.90768 3.79062 9.79278 3.50138 9.79278C3.21213 9.79278 2.93473 9.90768 2.7302 10.1122L1.66665 11.1767C0.682988 12.1603 0.130371 13.4944 0.130371 14.8854C0.130371 16.2765 0.682988 17.6106 1.66665 18.5942C2.65032 19.5778 3.98445 20.1304 5.37557 20.1304C6.76668 20.1304 8.10081 19.5778 9.08448 18.5942L12.7197 14.9592C13.2067 14.4722 13.5931 13.894 13.8567 13.2576C14.1203 12.6213 14.256 11.9392 14.256 11.2505C14.256 10.5617 14.1203 9.87965 13.8567 9.24331C13.5931 8.60696 13.2067 8.02877 12.7197 7.54174C12.6184 7.44047 12.4982 7.36013 12.3658 7.30533C12.2335 7.25052 12.0917 7.22231 11.9485 7.22231C11.8053 7.22231 11.6634 7.25052 11.5311 7.30533C11.3988 7.36013 11.2786 7.44047 11.1773 7.54174H11.1752Z" fill="#151515"/>
</svg>
