<svg width="16" height="19" viewBox="0 0 16 19" fill="none" xmlns="http://www.w3.org/2000/svg">
<path d="M3.625 7.63831C4.03749 7.61111 4.54602 7.61111 5.2 7.61111H10.8C11.454 7.61111 11.9625 7.61111 12.375 7.63831M3.625 7.63831C3.11022 7.67222 2.745 7.74853 2.43328 7.91994C1.93935 8.19157 1.53778 8.62497 1.28611 9.15811C1 9.76426 1 10.5576 1 12.1444V13.4667C1 15.0535 1 15.8469 1.28611 16.453C1.53778 16.9861 1.93935 17.4195 2.43328 17.6912C2.99479 18 3.72986 18 5.2 18H10.8C12.2702 18 13.0052 18 13.5667 17.6912C14.0607 17.4195 14.4622 16.9861 14.7139 16.453C15 15.8469 15 15.0535 15 13.4667V12.1444C15 10.5576 15 9.76426 14.7139 9.15811C14.4622 8.62497 14.0607 8.19157 13.5667 7.91994C13.255 7.74853 12.8898 7.67222 12.375 7.63831M3.625 7.63831V5.72222C3.625 3.11421 5.58376 1 8 1C10.4162 1 12.375 3.11421 12.375 5.72222V7.63831" stroke="#151515" stroke-width="2" stroke-linecap="round" stroke-linejoin="round"/>
</svg>
