<svg width="47" height="47" viewBox="0 0 47 47" fill="none" xmlns="http://www.w3.org/2000/svg">
<g clip-path="url(#clip0_117_119)">
<path d="M3.87775 31.7776V45.6919H7.39852C7.53456 43.213 9.58732 41.2448 12.1003 41.2448C14.6132 41.2448 16.6659 43.213 16.802 45.6919H30.1983C30.3344 43.213 32.3871 41.2448 34.9001 41.2448C37.413 41.2448 39.4658 43.213 39.6018 45.6919H43.1226V31.7776H3.87775Z" fill="white"/>
<path d="M43.1224 30.4692H32.6838L30.9247 24.5015H43.1223C43.8447 24.5015 44.4305 23.9159 44.4305 23.1934C44.4305 22.4708 43.8448 21.8852 43.1223 21.8852H30.1534L28.9134 17.6781C31.5617 15.8912 33.1673 12.9108 33.1673 9.66711C33.1673 4.33666 28.8307 0 23.5001 0C18.1694 0 13.8329 4.33666 13.8329 9.66729C13.8329 13.2765 15.8209 16.5597 19.021 18.2357C19.6614 18.5709 20.4518 18.3237 20.7867 17.6836C21.122 17.0437 20.8749 16.2531 20.2348 15.9179C17.8996 14.6951 16.4491 12.2999 16.4491 9.66729C16.4491 5.77934 19.6123 2.6163 23.5001 2.6163C27.388 2.6163 30.5511 5.77943 30.5511 9.66729C30.5511 12.2999 29.1006 14.6951 26.7654 15.9179C26.2124 16.2075 25.941 16.8477 26.1176 17.4466L27.426 21.8853H3.87777C3.15543 21.8853 2.56958 22.471 2.56958 23.1935V31.7775V31.8787V45.692C2.56958 46.4145 3.15533 47.0002 3.87777 47.0002H7.39855C8.09326 47.0002 8.66663 46.4573 8.70472 45.7636C8.80331 43.9632 10.2948 42.553 12.1002 42.553C13.9055 42.553 15.3969 43.9634 15.4957 45.7638C15.5338 46.4574 16.1074 47.0003 16.8018 47.0003H30.1981C30.8927 47.0003 31.4662 46.4574 31.5043 45.7638C31.603 43.9634 33.0945 42.553 34.8997 42.553C36.7051 42.553 38.1965 43.9634 38.2952 45.7636C38.3333 46.4572 38.9068 47.0002 39.6014 47.0002H43.1221C43.8445 47.0002 44.4303 46.4145 44.4303 45.692V31.7774C44.4305 31.0551 43.8449 30.4692 43.1224 30.4692ZM28.1971 24.5017L29.9562 30.4694H17.1687L17.9491 27.9188C18.1605 27.2279 17.7718 26.4966 17.0809 26.2852C16.3907 26.0737 15.6587 26.4624 15.4473 27.1534L14.4327 30.4694H5.18597V24.5017H28.1971ZM6.29001 44.3837H5.18606V33.0855H13.6322L11.5274 39.9643C9.01307 40.2027 6.93415 41.9902 6.29001 44.3837ZM29.0897 44.3837H17.9106C17.3989 42.4826 15.9816 40.9642 14.1607 40.3001L16.3682 33.0856H30.7274L32.8526 40.2954C31.0253 40.9569 29.6026 42.4781 29.0897 44.3837ZM41.8142 44.3837H40.7103C40.067 41.9933 37.9926 40.2074 35.4829 39.9655L33.455 33.0856H41.8144V44.3837H41.8142Z" fill="#151515"/>
</g>
<defs>
<clipPath id="clip0_117_119">
<rect width="47" height="47" fill="white"/>
</clipPath>
</defs>
</svg>
