<svg width="473" height="315" viewBox="0 0 473 315" fill="none" xmlns="http://www.w3.org/2000/svg">
<rect x="1" y="36" width="471" height="243" rx="29" fill="#FAC9E1" stroke="#151515" stroke-width="2"/>
<g clip-path="url(#clip0_192_7)">
<path d="M61.4553 36.5104V52.4971H65.5005C65.6568 49.6489 68.0153 47.3876 70.9025 47.3876C73.7897 47.3876 76.1481 49.6489 76.3044 52.4971H91.696C91.8523 49.6489 94.2108 47.3876 97.098 47.3876C99.9852 47.3876 102.344 49.6489 102.5 52.4971H106.545V36.5104H61.4553Z" fill="white"/>
<path d="M106.545 35.0072H94.5517L92.5306 28.1507H106.545C107.375 28.1507 108.048 27.4778 108.048 26.6477C108.048 25.8175 107.375 25.1446 106.545 25.1446H91.6444L90.2198 20.311C93.2625 18.258 95.1073 14.8337 95.1073 11.1069C95.1073 4.98254 90.1247 0 84.0002 0C77.8756 0 72.8932 4.98254 72.8932 11.1071C72.8932 15.2538 75.1773 19.026 78.854 20.9516C79.5898 21.3368 80.4979 21.0528 80.8827 20.3174C81.2679 19.5821 80.984 18.6737 80.2487 18.2887C77.5656 16.8837 75.8991 14.1318 75.8991 11.1071C75.8991 6.64009 79.5334 3.00596 84.0003 3.00596C88.4672 3.00596 92.1014 6.64019 92.1014 11.1071C92.1014 14.1318 90.4348 16.8837 87.7519 18.2887C87.1164 18.6214 86.8047 19.357 87.0076 20.045L88.5109 25.1449H61.4554C60.6255 25.1449 59.9524 25.8178 59.9524 26.6479V36.5104V36.6266V52.4972C59.9524 53.3273 60.6254 54.0002 61.4554 54.0002H65.5006C66.2988 54.0002 66.9575 53.3765 67.0013 52.5794C67.1146 50.5109 68.8282 48.8907 70.9025 48.8907C72.9766 48.8907 74.6901 50.5111 74.8036 52.5797C74.8474 53.3766 75.5065 54.0003 76.3043 54.0003H91.6958C92.4939 54.0003 93.1527 53.3766 93.1965 52.5797C93.31 50.5111 95.0235 48.8907 97.0977 48.8907C99.1719 48.8907 100.885 50.5111 100.999 52.5794C101.043 53.3764 101.701 54.0002 102.5 54.0002H106.545C107.375 54.0002 108.048 53.3273 108.048 52.4972V36.5103C108.048 35.6803 107.375 35.0072 106.545 35.0072ZM89.3968 28.1509L91.4179 35.0074H76.7258L77.6225 32.0769C77.8654 31.2831 77.4188 30.4429 76.625 30.2C75.8319 29.9571 74.9909 30.4036 74.748 31.1975L73.5823 35.0074H62.9585V28.1509H89.3968ZM64.2269 50.994H62.9586V38.0132H72.6626L70.2443 45.9165C67.3555 46.1904 64.967 48.2441 64.2269 50.994ZM90.4224 50.994H77.5783C76.9903 48.8098 75.362 47.0652 73.2698 46.3023L75.8061 38.0133H92.3039L94.7456 46.2969C92.6462 47.0569 91.0116 48.8046 90.4224 50.994ZM105.042 50.994H103.774C103.035 48.2476 100.651 46.1957 97.7677 45.9178L95.4378 38.0133H105.042V50.994H105.042Z" fill="#151515"/>
</g>
<defs>
<clipPath id="clip0_192_7">
<rect width="54" height="54" fill="white" transform="translate(57)"/>
</clipPath>
</defs>
</svg>
