<svg width="20" height="20" viewBox="0 0 20 20" fill="none" xmlns="http://www.w3.org/2000/svg">
<path d="M10 19C14.9706 19 19 14.9706 19 10C19 5.02944 14.9706 1 10 1C5.02944 1 1 5.02944 1 10C1 14.9706 5.02944 19 10 19Z" stroke="black" stroke-width="1.8" stroke-linecap="round" stroke-linejoin="round"/>
<path d="M12.5 7.08333L12.3563 6.96356C11.9968 6.66403 11.5438 6.5 11.0759 6.5H8.75C7.7835 6.5 7 7.2835 7 8.25C7 9.2165 7.7835 10 8.75 10H11.25C12.2165 10 13 10.7835 13 11.75C13 12.7165 12.2165 13.5 11.25 13.5H8.412C7.8913 13.5 7.39114 13.2969 7.01782 12.934L7 12.9167" stroke="black" stroke-width="1.8" stroke-linecap="round" stroke-linejoin="round"/>
<path d="M10 6V5" stroke="black" stroke-width="1.8" stroke-linecap="round" stroke-linejoin="round"/>
<path d="M10 15V14" stroke="black" stroke-width="1.8" stroke-linecap="round" stroke-linejoin="round"/>
</svg>
