<svg width="24" height="23" viewBox="0 0 24 23" fill="none" xmlns="http://www.w3.org/2000/svg">
<path d="M11.1737 3.02647C11.4355 2.44135 11.5664 2.1488 11.7487 2.05871C11.9071 1.98043 12.093 1.98043 12.2513 2.05871C12.4336 2.1488 12.5646 2.44135 12.8264 3.02647L14.9117 7.68699C14.9892 7.85996 15.0279 7.94644 15.0878 8.01267C15.1407 8.07128 15.2055 8.11815 15.2778 8.15024C15.3596 8.18651 15.4541 8.19645 15.6432 8.21632L20.7371 8.7519C21.3766 8.81914 21.6963 8.85275 21.8387 8.99762C21.9623 9.12344 22.0197 9.29964 21.9939 9.47385C21.9643 9.67438 21.7255 9.88876 21.2478 10.3176L17.4427 13.7336C17.3015 13.8604 17.2308 13.9238 17.1862 14.0009C17.1466 14.0693 17.1218 14.1451 17.1136 14.2236C17.1042 14.3122 17.1239 14.4048 17.1633 14.5901L18.2261 19.5816C18.3596 20.2083 18.4263 20.5216 18.332 20.7012C18.25 20.8573 18.0996 20.9662 17.9253 20.9956C17.7247 21.0294 17.4462 20.8694 16.8891 20.5493L12.452 17.9999C12.2874 17.9053 12.205 17.8581 12.1175 17.8395C12.04 17.8232 11.96 17.8232 11.8825 17.8395C11.795 17.8581 11.7127 17.9053 11.548 17.9999L7.11095 20.5493C6.5539 20.8694 6.27537 21.0294 6.07474 20.9956C5.90046 20.9662 5.75 20.8573 5.66808 20.7012C5.57378 20.5216 5.64049 20.2083 5.77392 19.5816L6.83669 14.5901C6.87614 14.4048 6.89586 14.3122 6.88649 14.2236C6.8782 14.1451 6.85347 14.0693 6.81389 14.0009C6.76916 13.9238 6.69855 13.8604 6.55734 13.7336L2.75231 10.3176C2.27461 9.88876 2.03575 9.67438 2.00605 9.47385C1.98027 9.29964 2.03773 9.12344 2.16138 8.99762C2.30374 8.85275 2.6235 8.81914 3.26302 8.7519L8.35689 8.21632C8.54596 8.19645 8.64048 8.18651 8.72222 8.15024C8.79454 8.11815 8.85929 8.07128 8.91229 8.01267C8.97217 7.94644 9.01087 7.85996 9.08828 7.68699L11.1737 3.02647Z" fill="#151515" stroke="#151515" stroke-width="3" stroke-linecap="round" stroke-linejoin="round"/>
</svg>
