<svg width="17" height="19" viewBox="0 0 17 19" fill="none" xmlns="http://www.w3.org/2000/svg">
<path d="M1 5.9C5.54253 4.33835 10.52 4.33835 15.0625 5.9" stroke="black" stroke-width="2" stroke-linecap="round" stroke-linejoin="round"/>
<path d="M4.91382 4.96004C4.91382 4.17499 5.24305 3.42214 5.82911 2.86702C6.41515 2.31191 7.21001 2 8.03884 2C8.86759 2 9.66251 2.31191 10.2485 2.86702C10.8345 3.42214 11.1638 4.17499 11.1638 4.96004" stroke="black" stroke-width="2" stroke-linecap="round" stroke-linejoin="round"/>
<path d="M8.03125 10.3474V14.0475" stroke="black" stroke-width="2" stroke-linecap="round" stroke-linejoin="round"/>
<path d="M13.5001 8.11987L12.9767 14.04C12.8927 14.8399 12.5021 15.583 11.8787 16.1285C11.2553 16.674 10.4424 16.984 9.59387 17H6.46887C5.62035 16.984 4.80743 16.674 4.18404 16.1285C3.56063 15.583 3.17 14.8399 3.08607 14.04L2.56262 8.11987" stroke="black" stroke-width="2" stroke-linecap="round" stroke-linejoin="round"/>
</svg>
