<svg width="16" height="20" viewBox="0 0 16 20" fill="none" xmlns="http://www.w3.org/2000/svg">
<path d="M12.375 8.18968C11.9625 8.16307 11.454 8.16307 10.8 8.16307H5.2C4.54602 8.16307 4.03749 8.16307 3.625 8.18968C3.11022 8.22285 2.745 8.2975 2.43328 8.46519C1.93935 8.73091 1.53778 9.15489 1.28611 9.67644C1 10.2694 1 11.0455 1 12.5979V13.8913C1 15.4437 1 16.2198 1.28611 16.8127C1.53778 17.3343 1.93935 17.7583 2.43328 18.024C2.99479 18.3261 3.72986 18.3261 5.2 18.3261H10.8C12.2702 18.3261 13.0052 18.3261 13.5667 18.024C14.0607 17.7583 14.4622 17.3343 14.7139 16.8127C15 16.2198 15 15.4437 15 13.8913V12.5979C15 11.0455 15 10.2694 14.7139 9.67644C14.4622 9.15489 14.0607 8.73091 13.5667 8.46519C13.255 8.2975 12.8898 8.22285 12.375 8.18968ZM12.375 8.18968V6.31524C12.375 3.76393 10.4162 1.69568 8 1.69568C6.33192 1.69568 4.88188 2.6814 4.14383 4.13128" stroke="#151515" stroke-width="2" stroke-linecap="round" stroke-linejoin="round"/>
</svg>
