<svg width="24" height="24" viewBox="0 0 24 24" fill="none" xmlns="http://www.w3.org/2000/svg">
<path d="M13.2497 4.84229H4.4983C2.57479 4.84229 1 6.41881 1 8.34444V21.137C1 22.7698 2.16985 23.468 3.59843 22.6685L8.01911 20.2023C8.49155 19.9433 9.25647 19.9433 9.71766 20.2023L14.1384 22.6685C15.5669 23.468 16.7368 22.7698 16.7368 21.137V8.34444C16.748 6.41881 15.1732 4.84229 13.2497 4.84229Z" fill="#151515" stroke="#151515" stroke-width="2" stroke-linecap="round" stroke-linejoin="round"/>
<path d="M17 17.018L20.1403 18.831C21.5678 19.6195 22.7368 18.9324 22.7368 17.2991V4.50311C22.7368 2.57696 21.1632 1 19.241 1H10.4958C8.57367 1 7 2.57696 7 4.50311" stroke="#151515" stroke-width="2" stroke-linecap="round" stroke-linejoin="round"/>
</svg>
